<?xml version="1.0" encoding="UTF-8" standalone="no"?>
<!-- Created with Inkscape (http://www.inkscape.org/) -->

<svg
   width="105"
   height="105"
   viewBox="0 0 27.78125 27.781249"
   version="1.1"
   id="svg26"
   xmlns="http://www.w3.org/2000/svg"
   xmlns:svg="http://www.w3.org/2000/svg">
  <defs
     id="defs23" />
  <g
     id="layer1"
     transform="translate(-107.82816,-75.23604)">
    <path
       d="m 110.85083,97.125583 q 0,-0.74084 0.52917,-1.27 0.52916,-0.52917 1.27,-0.52917 0.74083,0 1.23472,0.52917 0.52917,0.52916 0.52917,1.27 0,0.74083 -0.52917,1.27 -0.49389,0.49389 -1.23472,0.49389 -0.74084,0 -1.27,-0.49389 -0.52917,-0.52917 -0.52917,-1.27 z m 0,-3.98639 q 0,-0.74084 0.49389,-1.27 0.52917,-0.52917 1.27,-0.52917 0.74083,0 1.27,0.52917 0.52917,0.52916 0.52917,1.27 0,0.74083 -0.52917,1.27 -0.52917,0.49389 -1.27,0.49389 -0.74083,0 -1.27,-0.49389 -0.49389,-0.52917 -0.49389,-1.27 z m -0.0353,-4.02167 q 0,-0.74084 0.52917,-1.23473 0.52916,-0.52916 1.27,-0.52916 0.74083,0 1.27,0.52916 0.52916,0.49389 0.52916,1.23473 0,0.74083 -0.52916,1.27 -0.52917,0.52917 -1.27,0.52917 -0.74084,0 -1.27,-0.52917 -0.52917,-0.52917 -0.52917,-1.27 z m 0,-3.98639 q 0,-0.74084 0.52917,-1.27001 0.52916,-0.52916 1.27,-0.52916 0.74083,0 1.27,0.52916 0.52916,0.52917 0.52916,1.27001 0,0.74083 -0.52916,1.27 -0.52917,0.52916 -1.27,0.52916 -0.74084,0 -1.27,-0.52916 -0.52917,-0.52917 -0.52917,-1.27 z m 0,-3.9864 q 0,-0.74083 0.52917,-1.27 0.52916,-0.52916 1.27,-0.52916 0.74083,0 1.23472,0.52916 0.52917,0.52917 0.52917,1.27 0,0.74084 -0.52917,1.27 -0.49389,0.52917 -1.23472,0.52917 -0.74084,0 -1.27,-0.52917 -0.52917,-0.52916 -0.52917,-1.27 z m 4.65667,20.037797 q 0,-0.74084 0.52917,-1.234727 0.52916,-0.52916 1.27,-0.52916 0.74083,0 1.23472,0.52916 0.52917,0.493887 0.52917,1.234727 0,0.74083 -0.52917,1.27 -0.49389,0.52916 -1.23472,0.52916 -0.74084,0 -1.27,-0.52916 -0.52917,-0.52917 -0.52917,-1.27 z m -0.0353,-23.953627 q 0,-0.74084 0.49389,-1.27 0.52916,-0.52917 1.27,-0.52917 0.74083,0 1.27,0.52917 0.52917,0.52916 0.52917,1.27 0,0.74083 -0.52917,1.27 -0.52917,0.52917 -1.27,0.52917 -0.74084,0 -1.27,-0.52917 -0.49389,-0.52917 -0.49389,-1.27 z m 4.7625,23.847787 q 0,-0.74083 0.49389,-1.234717 0.52917,-0.52917 1.27,-0.52917 0.74084,0 1.27,0.52917 0.52917,0.493887 0.52917,1.234717 0,0.74084 -0.52917,1.27 -0.52916,0.52917 -1.27,0.52917 -0.74083,0 -1.27,-0.52917 -0.49389,-0.52916 -0.49389,-1.27 z m -0.0705,-23.953627 q 0,-0.74083 0.52917,-1.27 0.52917,-0.52916 1.27,-0.52916 0.74083,0 1.27,0.52916 0.52917,0.52917 0.52917,1.27 0,0.74084 -0.52917,1.27001 -0.52917,0.52916 -1.27,0.52916 -0.74083,0 -1.27,-0.52916 -0.52917,-0.52917 -0.52917,-1.27001 z m 4.58611,23.953627 q 0,-0.74083 0.49389,-1.269997 0.52917,-0.52917 1.27,-0.52917 0.74084,0 1.27001,0.52917 0.52916,0.529167 0.52916,1.269997 0,0.74084 -0.52916,1.27 -0.52917,0.52917 -1.27001,0.52917 -0.74083,0 -1.27,-0.52917 -0.49389,-0.52916 -0.49389,-1.27 z m -0.0706,-23.953627 q 0,-0.74083 0.52917,-1.27 0.52917,-0.52916 1.27,-0.52916 0.74084,0 1.23473,0.52916 0.52916,0.52917 0.52916,1.27 0,0.74084 -0.52916,1.27001 -0.49389,0.49388 -1.23473,0.49388 -0.74083,0 -1.27,-0.49388 -0.52917,-0.52917 -0.52917,-1.27001 z m 4.69195,20.0378 q 0,-0.74084 0.52917,-1.27 0.52917,-0.52917 1.27,-0.52917 0.74083,0 1.23472,0.52917 0.52917,0.52916 0.52917,1.27 0,0.74083 -0.52917,1.27 -0.49389,0.52916 -1.23472,0.52916 -0.74083,0 -1.27,-0.52916 -0.52917,-0.52917 -0.52917,-1.27 z m -0.0353,-15.98085 q 0,-0.74083 0.52917,-1.23472 0.52917,-0.52917 1.27,-0.52917 0.74083,0 1.23472,0.52917 0.52917,0.49389 0.52917,1.23472 0,0.74084 -0.52917,1.27 -0.49389,0.52917 -1.23472,0.52917 -0.74083,0 -1.27,-0.52917 -0.52917,-0.52916 -0.52917,-1.27 z"
       id="path6090"
       style="fill:#e63946" />
  </g>
</svg>
