<?xml version="1.0" encoding="UTF-8" standalone="no"?>
<!-- Created with Inkscape (http://www.inkscape.org/) -->

<svg
        width="156.78723mm"
        height="27.657797mm"
        viewBox="0 0 156.78723 27.657797"
        version="1.1"
        id="svg5"
        xmlns="http://www.w3.org/2000/svg"
        xmlns:svg="http://www.w3.org/2000/svg">
    <defs
            id="defs2"/>
    <g
            id="layer1"
            class="logo"
            style="fill: #e63946"
            transform="translate(-28.29676,-125.29588)">
        <g
                id="text1815">
            <path
                    d="m 28.332038,147.09756 q 0,-0.74084 0.529167,-1.27 0.529167,-0.52917 1.270001,-0.52917 0.740834,0 1.234723,0.52917 0.529167,0.52916 0.529167,1.27 0,0.74083 -0.529167,1.27 -0.493889,0.49389 -1.234723,0.49389 -0.740834,0 -1.270001,-0.49389 -0.529167,-0.52917 -0.529167,-1.27 z m 0,-3.98639 q 0,-0.74084 0.493889,-1.27 0.529167,-0.52917 1.270001,-0.52917 0.740834,0 1.270001,0.52917 0.529167,0.52916 0.529167,1.27 0,0.74083 -0.529167,1.27 -0.529167,0.49389 -1.270001,0.49389 -0.740834,0 -1.270001,-0.49389 -0.493889,-0.52917 -0.493889,-1.27 z m -0.03528,-4.02167 q 0,-0.74084 0.529167,-1.23473 0.529167,-0.52916 1.270001,-0.52916 0.740834,0 1.270001,0.52916 0.529167,0.49389 0.529167,1.23473 0,0.74083 -0.529167,1.27 -0.529167,0.52917 -1.270001,0.52917 -0.740834,0 -1.270001,-0.52917 -0.529167,-0.52917 -0.529167,-1.27 z m 0,-3.98639 q 0,-0.74084 0.529167,-1.27001 0.529167,-0.52916 1.270001,-0.52916 0.740834,0 1.270001,0.52916 0.529167,0.52917 0.529167,1.27001 0,0.74083 -0.529167,1.27 -0.529167,0.52916 -1.270001,0.52916 -0.740834,0 -1.270001,-0.52916 -0.529167,-0.52917 -0.529167,-1.27 z m 0,-3.9864 q 0,-0.74083 0.529167,-1.27 0.529167,-0.52916 1.270001,-0.52916 0.740834,0 1.234723,0.52916 0.529167,0.52917 0.529167,1.27 0,0.74084 -0.529167,1.27 -0.493889,0.52917 -1.234723,0.52917 -0.740834,0 -1.270001,-0.52917 -0.529167,-0.52916 -0.529167,-1.27 z m 4.65667,20.0378 q 0,-0.74084 0.529167,-1.23473 0.529167,-0.52916 1.270001,-0.52916 0.740834,0 1.234723,0.52916 0.529167,0.49389 0.529167,1.23473 0,0.74083 -0.529167,1.27 -0.493889,0.52916 -1.234723,0.52916 -0.740834,0 -1.270001,-0.52916 -0.529167,-0.52917 -0.529167,-1.27 z m -0.03528,-23.95363 q 0,-0.74084 0.493889,-1.27 0.529167,-0.52917 1.270001,-0.52917 0.740834,0 1.270001,0.52917 0.529167,0.52916 0.529167,1.27 0,0.74083 -0.529167,1.27 -0.529167,0.52917 -1.270001,0.52917 -0.740834,0 -1.270001,-0.52917 -0.493889,-0.52917 -0.493889,-1.27 z m 4.762503,23.84779 q 0,-0.74083 0.49389,-1.23472 0.529167,-0.52917 1.27,-0.52917 0.740834,0 1.270001,0.52917 0.529167,0.49389 0.529167,1.23472 0,0.74084 -0.529167,1.27 -0.529167,0.52917 -1.270001,0.52917 -0.740833,0 -1.27,-0.52917 -0.49389,-0.52916 -0.49389,-1.27 z M 37.6101,127.09504 q 0,-0.74083 0.529167,-1.27 0.529167,-0.52916 1.270001,-0.52916 0.740834,0 1.270001,0.52916 0.529167,0.52917 0.529167,1.27 0,0.74084 -0.529167,1.27001 -0.529167,0.52916 -1.270001,0.52916 -0.740834,0 -1.270001,-0.52916 -0.529167,-0.52917 -0.529167,-1.27001 z m 4.586114,23.95363 q 0,-0.74083 0.493889,-1.27 0.529167,-0.52917 1.270001,-0.52917 0.740834,0 1.270001,0.52917 0.529167,0.52917 0.529167,1.27 0,0.74084 -0.529167,1.27 -0.529167,0.52917 -1.270001,0.52917 -0.740834,0 -1.270001,-0.52917 -0.493889,-0.52916 -0.493889,-1.27 z m -0.07056,-23.95363 q 0,-0.74083 0.529167,-1.27 0.529167,-0.52916 1.270001,-0.52916 0.740834,0 1.234723,0.52916 0.529167,0.52917 0.529167,1.27 0,0.74084 -0.529167,1.27001 -0.493889,0.49388 -1.234723,0.49388 -0.740834,0 -1.270001,-0.49388 -0.529167,-0.52917 -0.529167,-1.27001 z m 4.691948,20.0378 q 0,-0.74084 0.529167,-1.27 0.529167,-0.52917 1.270001,-0.52917 0.740834,0 1.234723,0.52917 0.529167,0.52916 0.529167,1.27 0,0.74083 -0.529167,1.27 -0.493889,0.52916 -1.234723,0.52916 -0.740834,0 -1.270001,-0.52916 -0.529167,-0.52917 -0.529167,-1.27 z m -0.03528,-15.98085 q 0,-0.74083 0.529167,-1.23472 0.529167,-0.52917 1.270001,-0.52917 0.740834,0 1.234723,0.52917 0.529167,0.49389 0.529167,1.23472 0,0.74084 -0.529167,1.27 -0.493889,0.52917 -1.234723,0.52917 -0.740834,0 -1.270001,-0.52917 -0.529167,-0.52916 -0.529167,-1.27 z"
                    id="path6090"/>
            <path
                    d="m 53.687957,151.08395 q 0,-0.74083 0.529167,-1.27 0.529167,-0.52917 1.270001,-0.52917 0.740834,0 1.270001,0.52917 0.529167,0.52917 0.529167,1.27 0,0.74083 -0.529167,1.27 -0.529167,0.52917 -1.270001,0.52917 -0.740834,0 -1.270001,-0.52917 -0.529167,-0.52917 -0.529167,-1.27 z m 0,-3.98639 q 0,-0.74084 0.529167,-1.27 0.529167,-0.52917 1.270001,-0.52917 0.740834,0 1.234723,0.52917 0.529167,0.52916 0.529167,1.27 0,0.74083 -0.529167,1.27 -0.493889,0.49389 -1.234723,0.49389 -0.740834,0 -1.270001,-0.49389 -0.529167,-0.52917 -0.529167,-1.27 z m 0,-3.98639 q 0,-0.74084 0.493889,-1.27 0.529167,-0.52917 1.270001,-0.52917 0.740834,0 1.270001,0.52917 0.529167,0.52916 0.529167,1.27 0,0.74083 -0.529167,1.27 -0.529167,0.49389 -1.270001,0.49389 -0.740834,0 -1.270001,-0.49389 -0.493889,-0.52917 -0.493889,-1.27 z m -0.03528,-4.02167 q 0,-0.74084 0.529167,-1.23473 0.529167,-0.52916 1.270001,-0.52916 0.740834,0 1.270001,0.52916 0.529167,0.49389 0.529167,1.23473 0,0.74083 -0.529167,1.27 -0.529167,0.52917 -1.270001,0.52917 -0.740834,0 -1.270001,-0.52917 -0.529167,-0.52917 -0.529167,-1.27 z m 0,-3.98639 q 0,-0.74084 0.529167,-1.27001 0.529167,-0.52916 1.270001,-0.52916 0.740834,0 1.270001,0.52916 0.529167,0.52917 0.529167,1.27001 0,0.74083 -0.529167,1.27 -0.529167,0.52916 -1.270001,0.52916 -0.740834,0 -1.270001,-0.52916 -0.529167,-0.52917 -0.529167,-1.27 z m 0,-3.9864 q 0,-0.74083 0.529167,-1.27 0.529167,-0.52916 1.270001,-0.52916 0.740834,0 1.234723,0.52916 0.529167,0.52917 0.529167,1.27 0,0.74084 -0.529167,1.27 -0.493889,0.52917 -1.234723,0.52917 -0.740834,0 -1.270001,-0.52917 -0.529167,-0.52916 -0.529167,-1.27 z m 0,-3.98639 q 0,-0.74083 0.493889,-1.27 0.529167,-0.52917 1.270001,-0.52917 0.740834,0 1.270001,0.52917 0.529167,0.52917 0.529167,1.27 0,0.74084 -0.529167,1.27 -0.529167,0.49389 -1.270001,0.49389 -0.740834,0 -1.270001,-0.49389 -0.493889,-0.52916 -0.493889,-1.27 z m 4.621392,12.06501 q 0,-0.74083 0.529167,-1.27 0.529167,-0.52917 1.270001,-0.52917 0.740834,0 1.270001,0.52917 0.529167,0.52917 0.529167,1.27 0,0.74083 -0.529167,1.27 -0.529167,0.49389 -1.270001,0.49389 -0.740834,0 -1.270001,-0.49389 -0.529167,-0.52917 -0.529167,-1.27 z m 1.799168,-9.80723 z m -1.799168,-2.18722 q 0,-0.74084 0.493889,-1.27 0.529167,-0.52917 1.270001,-0.52917 0.740834,0 1.270001,0.52917 0.529167,0.52916 0.529167,1.27 0,0.74083 -0.529167,1.27 -0.529167,0.52917 -1.270001,0.52917 -0.740834,0 -1.270001,-0.52917 -0.493889,-0.52917 -0.493889,-1.27 z m 4.727225,11.88862 q 0,-0.74084 0.529168,-1.27 0.529167,-0.52917 1.27,-0.52917 0.740834,0 1.234723,0.52917 0.529167,0.52916 0.529167,1.27 0,0.74083 -0.529167,1.27 -0.493889,0.49389 -1.234723,0.49389 -0.740833,0 -1.27,-0.49389 -0.529168,-0.52917 -0.529168,-1.27 z m 1.763891,-9.77195 z m -1.799168,-2.22251 q 0,-0.74083 0.529167,-1.27 0.529167,-0.52916 1.270001,-0.52916 0.740833,0 1.27,0.52916 0.529167,0.52917 0.529167,1.27 0,0.74084 -0.529167,1.27001 -0.529167,0.52916 -1.27,0.52916 -0.740834,0 -1.270001,-0.52916 -0.529167,-0.52917 -0.529167,-1.27001 z m 4.550836,11.95918 q 0,-0.74083 0.493889,-1.23472 0.529167,-0.52917 1.270001,-0.52917 0.740834,0 1.270001,0.52917 0.529167,0.49389 0.529167,1.23472 0,0.74083 -0.529167,1.27 -0.529167,0.52917 -1.270001,0.52917 -0.740834,0 -1.270001,-0.52917 -0.493889,-0.52917 -0.493889,-1.27 z m 1.76389,-9.77195 z m -1.799168,-2.18723 q 0,-0.74083 0.529167,-1.27 0.529167,-0.52916 1.270001,-0.52916 0.740834,0 1.234723,0.52916 0.529167,0.52917 0.529167,1.27 0,0.74084 -0.529167,1.27001 -0.493889,0.49388 -1.234723,0.49388 -0.740834,0 -1.270001,-0.49388 -0.529167,-0.52917 -0.529167,-1.27001 z m 4.691948,24.02419 q 0,-0.74084 0.529167,-1.23473 0.529167,-0.52916 1.270001,-0.52916 0.740834,0 1.270001,0.52916 0.529167,0.49389 0.529167,1.23473 0,0.74083 -0.529167,1.27 -0.529167,0.52917 -1.270001,0.52917 -0.740834,0 -1.270001,-0.52917 -0.529167,-0.52917 -0.529167,-1.27 z m 0,-3.98639 q 0,-0.74084 0.529167,-1.27 0.529167,-0.52917 1.270001,-0.52917 0.740834,0 1.234723,0.52917 0.529167,0.52916 0.529167,1.27 0,0.74083 -0.529167,1.27 -0.493889,0.52916 -1.234723,0.52916 -0.740834,0 -1.270001,-0.52916 -0.529167,-0.52917 -0.529167,-1.27 z m 0,-3.9864 q 0,-0.74083 0.493889,-1.27 0.529167,-0.52916 1.270001,-0.52916 0.740834,0 1.270001,0.52916 0.529167,0.52917 0.529167,1.27 0,0.74084 -0.529167,1.27001 -0.529167,0.52916 -1.270001,0.52916 -0.740834,0 -1.270001,-0.52916 -0.493889,-0.52917 -0.493889,-1.27001 z m -0.03528,-8.00806 q 0,-0.74083 0.529167,-1.23472 0.529167,-0.52917 1.270001,-0.52917 0.740834,0 1.270001,0.52917 0.529167,0.49389 0.529167,1.23472 0,0.74084 -0.529167,1.27 -0.529167,0.52917 -1.270001,0.52917 -0.740834,0 -1.270001,-0.52917 -0.529167,-0.52916 -0.529167,-1.27 z m 0,-3.98639 q 0,-0.74083 0.529167,-1.23472 0.529167,-0.52917 1.270001,-0.52917 0.740834,0 1.234723,0.52917 0.529167,0.49389 0.529167,1.23472 0,0.74084 -0.529167,1.27 -0.493889,0.52917 -1.234723,0.52917 -0.740834,0 -1.270001,-0.52917 -0.529167,-0.52916 -0.529167,-1.27 z"
                    id="path6092"/>
            <path
                    d="m 81.042033,147.09756 q 0,-0.74084 0.529167,-1.27 0.529167,-0.52917 1.270001,-0.52917 0.740834,0 1.234723,0.52917 0.529167,0.52916 0.529167,1.27 0,0.74083 -0.529167,1.27 -0.493889,0.49389 -1.234723,0.49389 -0.740834,0 -1.270001,-0.49389 -0.529167,-0.52917 -0.529167,-1.27 z m 0,-3.98639 q 0,-0.74084 0.49389,-1.27 0.529167,-0.52917 1.27,-0.52917 0.740834,0 1.270001,0.52917 0.529167,0.52916 0.529167,1.27 0,0.74083 -0.529167,1.27 -0.529167,0.49389 -1.270001,0.49389 -0.740833,0 -1.27,-0.49389 -0.49389,-0.52917 -0.49389,-1.27 z m -0.03528,-4.02167 q 0,-0.74084 0.529168,-1.23473 0.529167,-0.52916 1.27,-0.52916 0.740834,0 1.270001,0.52916 0.529167,0.49389 0.529167,1.23473 0,0.74083 -0.529167,1.27 -0.529167,0.52917 -1.270001,0.52917 -0.740833,0 -1.27,-0.52917 -0.529168,-0.52917 -0.529168,-1.27 z m 0,-3.98639 q 0,-0.74084 0.529168,-1.27001 0.529167,-0.52916 1.27,-0.52916 0.740834,0 1.270001,0.52916 0.529167,0.52917 0.529167,1.27001 0,0.74083 -0.529167,1.27 -0.529167,0.52916 -1.270001,0.52916 -0.740833,0 -1.27,-0.52916 -0.529168,-0.52917 -0.529168,-1.27 z m 0,-3.9864 q 0,-0.74083 0.529168,-1.27 0.529167,-0.52916 1.27,-0.52916 0.740834,0 1.234723,0.52916 0.529167,0.52917 0.529167,1.27 0,0.74084 -0.529167,1.27 -0.493889,0.52917 -1.234723,0.52917 -0.740833,0 -1.27,-0.52917 -0.529168,-0.52916 -0.529168,-1.27 z m 4.65667,20.0378 q 0,-0.74084 0.529167,-1.23473 0.529167,-0.52916 1.270001,-0.52916 0.740834,0 1.234723,0.52916 0.529167,0.49389 0.529167,1.23473 0,0.74083 -0.529167,1.27 -0.493889,0.52916 -1.234723,0.52916 -0.740834,0 -1.270001,-0.52916 -0.529167,-0.52917 -0.529167,-1.27 z m -0.03528,-23.95363 q 0,-0.74084 0.49389,-1.27 0.529167,-0.52917 1.270001,-0.52917 0.740833,0 1.27,0.52917 0.529167,0.52916 0.529167,1.27 0,0.74083 -0.529167,1.27 -0.529167,0.52917 -1.27,0.52917 -0.740834,0 -1.270001,-0.52917 -0.49389,-0.52917 -0.49389,-1.27 z m 4.762504,23.84779 q 0,-0.74083 0.493889,-1.23472 0.529167,-0.52917 1.270001,-0.52917 0.740834,0 1.270001,0.52917 0.529167,0.49389 0.529167,1.23472 0,0.74084 -0.529167,1.27 -0.529167,0.52917 -1.270001,0.52917 -0.740834,0 -1.270001,-0.52917 -0.493889,-0.52916 -0.493889,-1.27 z m -0.07056,-23.95363 q 0,-0.74083 0.529167,-1.27 0.529167,-0.52916 1.270001,-0.52916 0.740834,0 1.270001,0.52916 0.529167,0.52917 0.529167,1.27 0,0.74084 -0.529167,1.27001 -0.529167,0.52916 -1.270001,0.52916 -0.740834,0 -1.270001,-0.52916 -0.529167,-0.52917 -0.529167,-1.27001 z m 4.586114,23.95363 q 0,-0.74083 0.493889,-1.27 0.529168,-0.52917 1.270001,-0.52917 0.740834,0 1.270001,0.52917 0.529167,0.52917 0.529167,1.27 0,0.74084 -0.529167,1.27 -0.529167,0.52917 -1.270001,0.52917 -0.740833,0 -1.270001,-0.52917 -0.493889,-0.52916 -0.493889,-1.27 z m -0.07055,-23.95363 q 0,-0.74083 0.529167,-1.27 0.529167,-0.52916 1.270001,-0.52916 0.740833,0 1.234723,0.52916 0.529167,0.52917 0.529167,1.27 0,0.74084 -0.529167,1.27001 -0.49389,0.49388 -1.234723,0.49388 -0.740834,0 -1.270001,-0.49388 -0.529167,-0.52917 -0.529167,-1.27001 z m 4.691947,20.0378 q 0,-0.74084 0.529169,-1.27 0.52917,-0.52917 1.27,-0.52917 0.74083,0 1.23472,0.52917 0.52917,0.52916 0.52917,1.27 0,0.74083 -0.52917,1.27 -0.49389,0.52916 -1.23472,0.52916 -0.74083,0 -1.27,-0.52916 -0.529169,-0.52917 -0.529169,-1.27 z m 0,-3.9864 q 0,-0.74083 0.493889,-1.27 0.52917,-0.52916 1.27,-0.52916 0.74084,0 1.27,0.52916 0.52917,0.52917 0.52917,1.27 0,0.74084 -0.52917,1.27001 -0.52916,0.52916 -1.27,0.52916 -0.74083,0 -1.27,-0.52916 -0.493889,-0.52917 -0.493889,-1.27001 z m 0,-3.98639 q 0,-0.74083 0.493889,-1.27 0.52917,-0.52916 1.27,-0.52916 0.74084,0 1.27,0.52916 0.52917,0.52917 0.52917,1.27 0,0.74084 -0.52917,1.27 -0.52916,0.49389 -1.27,0.49389 -0.74083,0 -1.27,-0.49389 -0.493889,-0.52916 -0.493889,-1.27 z m -0.03528,-4.02167 q 0,-0.74083 0.529167,-1.23472 0.52917,-0.52917 1.27,-0.52917 0.74084,0 1.27,0.52917 0.52917,0.49389 0.52917,1.23472 0,0.74084 -0.52917,1.27 -0.52916,0.52917 -1.27,0.52917 -0.74083,0 -1.27,-0.52917 -0.529167,-0.52916 -0.529167,-1.27 z m 0,-3.98639 q 0,-0.74083 0.529167,-1.23472 0.52917,-0.52917 1.27,-0.52917 0.74084,0 1.23472,0.52917 0.52917,0.49389 0.52917,1.23472 0,0.74084 -0.52917,1.27 -0.49388,0.52917 -1.23472,0.52917 -0.74083,0 -1.27,-0.52917 -0.529167,-0.52916 -0.529167,-1.27 z"
                    id="path6094"/>
            <path
                    d="m 108.32721,151.08395 q 0,-0.74083 0.52917,-1.27 0.52916,-0.52917 1.27,-0.52917 0.74083,0 1.27,0.52917 0.52916,0.52917 0.52916,1.27 0,0.74083 -0.52916,1.27 -0.52917,0.52917 -1.27,0.52917 -0.74084,0 -1.27,-0.52917 -0.52917,-0.52917 -0.52917,-1.27 z m 0,-3.98639 q 0,-0.74084 0.52917,-1.27 0.52916,-0.52917 1.27,-0.52917 0.74083,0 1.23472,0.52917 0.52917,0.52916 0.52917,1.27 0,0.74083 -0.52917,1.27 -0.49389,0.49389 -1.23472,0.49389 -0.74084,0 -1.27,-0.49389 -0.52917,-0.52917 -0.52917,-1.27 z m 0,-3.98639 q 0,-0.74084 0.49389,-1.27 0.52916,-0.52917 1.27,-0.52917 0.74083,0 1.27,0.52917 0.52917,0.52916 0.52917,1.27 0,0.74083 -0.52917,1.27 -0.52917,0.49389 -1.27,0.49389 -0.74084,0 -1.27,-0.49389 -0.49389,-0.52917 -0.49389,-1.27 z m -0.0353,-4.02167 q 0,-0.74084 0.52917,-1.23473 0.52916,-0.52916 1.27,-0.52916 0.74083,0 1.27,0.52916 0.52917,0.49389 0.52917,1.23473 0,0.74083 -0.52917,1.27 -0.52917,0.52917 -1.27,0.52917 -0.74084,0 -1.27,-0.52917 -0.52917,-0.52917 -0.52917,-1.27 z m 0,-3.98639 q 0,-0.74084 0.52917,-1.27001 0.52916,-0.52916 1.27,-0.52916 0.74083,0 1.27,0.52916 0.52917,0.52917 0.52917,1.27001 0,0.74083 -0.52917,1.27 -0.52917,0.52916 -1.27,0.52916 -0.74084,0 -1.27,-0.52916 -0.52917,-0.52917 -0.52917,-1.27 z m 0,-3.9864 q 0,-0.74083 0.52917,-1.27 0.52916,-0.52916 1.27,-0.52916 0.74083,0 1.23472,0.52916 0.52917,0.52917 0.52917,1.27 0,0.74084 -0.52917,1.27 -0.49389,0.52917 -1.23472,0.52917 -0.74084,0 -1.27,-0.52917 -0.52917,-0.52916 -0.52917,-1.27 z m 0,-3.98639 q 0,-0.74083 0.49389,-1.27 0.52917,-0.52917 1.27,-0.52917 0.74083,0 1.27,0.52917 0.52917,0.52917 0.52917,1.27 0,0.74084 -0.52917,1.27 -0.52917,0.49389 -1.27,0.49389 -0.74083,0 -1.27,-0.49389 -0.49389,-0.52916 -0.49389,-1.27 z m 4.62139,8.04334 q 0,-0.74083 0.52917,-1.23472 0.52917,-0.52917 1.27,-0.52917 0.74083,0 1.23472,0.52917 0.52917,0.49389 0.52917,1.23472 0,0.74084 -0.52917,1.27 -0.49389,0.52917 -1.23472,0.52917 -0.74083,0 -1.27,-0.52917 -0.52917,-0.52916 -0.52917,-1.27 z m 4.72723,3.91584 q 0,-0.74084 0.52917,-1.27 0.52916,-0.52917 1.27,-0.52917 0.74083,0 1.23472,0.52917 0.52917,0.52916 0.52917,1.27 0,0.74083 -0.52917,1.27 -0.49389,0.49389 -1.23472,0.49389 -0.74084,0 -1.27,-0.49389 -0.52917,-0.52917 -0.52917,-1.27 z m 4.51556,3.98639 q 0,-0.74083 0.52916,-1.27 0.52917,-0.52917 1.27,-0.52917 0.74084,0 1.23473,0.52917 0.52916,0.52917 0.52916,1.27 0,0.74083 -0.52916,1.27 -0.49389,0.49389 -1.23473,0.49389 -0.74083,0 -1.27,-0.49389 -0.52916,-0.52917 -0.52916,-1.27 z m 4.65667,8.04334 q 0,-0.74084 0.52916,-1.23473 0.52917,-0.52916 1.27,-0.52916 0.74084,0 1.27001,0.52916 0.52916,0.49389 0.52916,1.23473 0,0.74083 -0.52916,1.27 -0.52917,0.52917 -1.27001,0.52917 -0.74083,0 -1.27,-0.52917 -0.52916,-0.52917 -0.52916,-1.27 z m 0,-3.98639 q 0,-0.74084 0.52916,-1.27 0.52917,-0.52917 1.27,-0.52917 0.74084,0 1.23473,0.52917 0.52916,0.52916 0.52916,1.27 0,0.74083 -0.52916,1.27 -0.49389,0.52916 -1.23473,0.52916 -0.74083,0 -1.27,-0.52916 -0.52916,-0.52917 -0.52916,-1.27 z m 0,-3.9864 q 0,-0.74083 0.49389,-1.27 0.52916,-0.52916 1.27,-0.52916 0.74083,0 1.27,0.52916 0.52916,0.52917 0.52916,1.27 0,0.74084 -0.52916,1.27001 -0.52917,0.52916 -1.27,0.52916 -0.74084,0 -1.27,-0.52916 -0.49389,-0.52917 -0.49389,-1.27001 z m 0,-3.98639 q 0,-0.74083 0.49389,-1.27 0.52916,-0.52916 1.27,-0.52916 0.74083,0 1.27,0.52916 0.52916,0.52917 0.52916,1.27 0,0.74084 -0.52916,1.27 -0.52917,0.49389 -1.27,0.49389 -0.74084,0 -1.27,-0.49389 -0.49389,-0.52916 -0.49389,-1.27 z m -0.0353,-4.02167 q 0,-0.74083 0.52917,-1.23472 0.52916,-0.52917 1.27,-0.52917 0.74083,0 1.27,0.52917 0.52916,0.49389 0.52916,1.23472 0,0.74084 -0.52916,1.27 -0.52917,0.52917 -1.27,0.52917 -0.74084,0 -1.27,-0.52917 -0.52917,-0.52916 -0.52917,-1.27 z m 0,-3.98639 q 0,-0.74083 0.52917,-1.23472 0.52916,-0.52917 1.27,-0.52917 0.74083,0 1.23472,0.52917 0.52917,0.49389 0.52917,1.23472 0,0.74084 -0.52917,1.27 -0.49389,0.52917 -1.23472,0.52917 -0.74084,0 -1.27,-0.52917 -0.52917,-0.52916 -0.52917,-1.27 z m 0,-3.98639 q 0,-0.74083 0.49389,-1.27 0.52917,-0.52917 1.27,-0.52917 0.74083,0 1.27,0.52917 0.52917,0.52917 0.52917,1.27 0,0.74083 -0.52917,1.27 -0.52917,0.52917 -1.27,0.52917 -0.74083,0 -1.27,-0.52917 -0.49389,-0.52917 -0.49389,-1.27 z"
                    id="path6096"/>
            <path
                    d="m 135.61239,147.09756 q 0,-0.74084 0.52916,-1.27 0.52917,-0.52917 1.27001,-0.52917 0.74083,0 1.23472,0.52917 0.52917,0.52916 0.52917,1.27 0,0.74083 -0.52917,1.27 -0.49389,0.49389 -1.23472,0.49389 -0.74084,0 -1.27001,-0.49389 -0.52916,-0.52917 -0.52916,-1.27 z m 0,-3.98639 q 0,-0.74084 0.49389,-1.27 0.52916,-0.52917 1.27,-0.52917 0.74083,0 1.27,0.52917 0.52917,0.52916 0.52917,1.27 0,0.74083 -0.52917,1.27 -0.52917,0.49389 -1.27,0.49389 -0.74084,0 -1.27,-0.49389 -0.49389,-0.52917 -0.49389,-1.27 z m -0.0353,-4.02167 q 0,-0.74084 0.52917,-1.23473 0.52916,-0.52916 1.27,-0.52916 0.74083,0 1.27,0.52916 0.52917,0.49389 0.52917,1.23473 0,0.74083 -0.52917,1.27 -0.52917,0.52917 -1.27,0.52917 -0.74084,0 -1.27,-0.52917 -0.52917,-0.52917 -0.52917,-1.27 z m 0,-3.98639 q 0,-0.74084 0.52917,-1.27001 0.52916,-0.52916 1.27,-0.52916 0.74083,0 1.27,0.52916 0.52917,0.52917 0.52917,1.27001 0,0.74083 -0.52917,1.27 -0.52917,0.52916 -1.27,0.52916 -0.74084,0 -1.27,-0.52916 -0.52917,-0.52917 -0.52917,-1.27 z m 0,-3.9864 q 0,-0.74083 0.52917,-1.27 0.52916,-0.52916 1.27,-0.52916 0.74083,0 1.23472,0.52916 0.52917,0.52917 0.52917,1.27 0,0.74084 -0.52917,1.27 -0.49389,0.52917 -1.23472,0.52917 -0.74084,0 -1.27,-0.52917 -0.52917,-0.52916 -0.52917,-1.27 z m 0,-3.98639 q 0,-0.74083 0.49389,-1.27 0.52917,-0.52917 1.27,-0.52917 0.74083,0 1.27,0.52917 0.52917,0.52917 0.52917,1.27 0,0.74084 -0.52917,1.27 -0.52917,0.49389 -1.27,0.49389 -0.74083,0 -1.27,-0.49389 -0.49389,-0.52916 -0.49389,-1.27 z m 4.65667,24.02419 q 0,-0.74084 0.52917,-1.23473 0.52916,-0.52916 1.27,-0.52916 0.74083,0 1.23472,0.52916 0.52917,0.49389 0.52917,1.23473 0,0.74083 -0.52917,1.27 -0.49389,0.52916 -1.23472,0.52916 -0.74084,0 -1.27,-0.52916 -0.52917,-0.52917 -0.52917,-1.27 z m 4.72723,-0.10584 q 0,-0.74083 0.49388,-1.23472 0.52917,-0.52917 1.27001,-0.52917 0.74083,0 1.27,0.52917 0.52916,0.49389 0.52916,1.23472 0,0.74084 -0.52916,1.27 -0.52917,0.52917 -1.27,0.52917 -0.74084,0 -1.27001,-0.52917 -0.49388,-0.52916 -0.49388,-1.27 z m 4.51555,0 q 0,-0.74083 0.49389,-1.27 0.52917,-0.52917 1.27,-0.52917 0.74084,0 1.27,0.52917 0.52917,0.52917 0.52917,1.27 0,0.74084 -0.52917,1.27 -0.52916,0.52917 -1.27,0.52917 -0.74083,0 -1.27,-0.52917 -0.49389,-0.52916 -0.49389,-1.27 z m 4.6214,-3.91583 q 0,-0.74084 0.52916,-1.27 0.52917,-0.52917 1.27,-0.52917 0.74084,0 1.23473,0.52917 0.52916,0.52916 0.52916,1.27 0,0.74083 -0.52916,1.27 -0.49389,0.52916 -1.23473,0.52916 -0.74083,0 -1.27,-0.52916 -0.52916,-0.52917 -0.52916,-1.27 z m 0,-3.9864 q 0,-0.74083 0.49388,-1.27 0.52917,-0.52916 1.27001,-0.52916 0.74083,0 1.27,0.52916 0.52916,0.52917 0.52916,1.27 0,0.74084 -0.52916,1.27001 -0.52917,0.52916 -1.27,0.52916 -0.74084,0 -1.27001,-0.52916 -0.49388,-0.52917 -0.49388,-1.27001 z m 0,-3.98639 q 0,-0.74083 0.49388,-1.27 0.52917,-0.52916 1.27001,-0.52916 0.74083,0 1.27,0.52916 0.52916,0.52917 0.52916,1.27 0,0.74084 -0.52916,1.27 -0.52917,0.49389 -1.27,0.49389 -0.74084,0 -1.27001,-0.49389 -0.49388,-0.52916 -0.49388,-1.27 z m -0.0353,-4.02167 q 0,-0.74083 0.52916,-1.23472 0.52917,-0.52917 1.27001,-0.52917 0.74083,0 1.27,0.52917 0.52916,0.49389 0.52916,1.23472 0,0.74084 -0.52916,1.27 -0.52917,0.52917 -1.27,0.52917 -0.74084,0 -1.27001,-0.52917 -0.52916,-0.52916 -0.52916,-1.27 z m 0,-3.98639 q 0,-0.74083 0.52916,-1.23472 0.52917,-0.52917 1.27001,-0.52917 0.74083,0 1.23472,0.52917 0.52917,0.49389 0.52917,1.23472 0,0.74084 -0.52917,1.27 -0.49389,0.52917 -1.23472,0.52917 -0.74084,0 -1.27001,-0.52917 -0.52916,-0.52916 -0.52916,-1.27 z m 0,-3.98639 q 0,-0.74083 0.49389,-1.27 0.52916,-0.52917 1.27,-0.52917 0.74083,0 1.27,0.52917 0.52917,0.52917 0.52917,1.27 0,0.74083 -0.52917,1.27 -0.52917,0.52917 -1.27,0.52917 -0.74084,0 -1.27,-0.52917 -0.49389,-0.52917 -0.49389,-1.27 z"
                    id="path6098"/>
            <path
                    d="m 163.03536,147.09756 q 0,-0.74084 0.52917,-1.27 0.52917,-0.52917 1.27,-0.52917 0.74083,0 1.23472,0.52917 0.52917,0.52916 0.52917,1.27 0,0.74083 -0.52917,1.27 -0.49389,0.49389 -1.23472,0.49389 -0.74083,0 -1.27,-0.49389 -0.52917,-0.52917 -0.52917,-1.27 z m -0.0353,-11.99445 q 0,-0.74084 0.52917,-1.27001 0.52917,-0.52916 1.27,-0.52916 0.74084,0 1.27,0.52916 0.52917,0.52917 0.52917,1.27001 0,0.74083 -0.52917,1.27 -0.52916,0.52916 -1.27,0.52916 -0.74083,0 -1.27,-0.52916 -0.52917,-0.52917 -0.52917,-1.27 z m 0,-3.9864 q 0,-0.74083 0.52917,-1.27 0.52917,-0.52916 1.27,-0.52916 0.74084,0 1.23472,0.52916 0.52917,0.52917 0.52917,1.27 0,0.74084 -0.52917,1.27 -0.49388,0.52917 -1.23472,0.52917 -0.74083,0 -1.27,-0.52917 -0.52917,-0.52916 -0.52917,-1.27 z m 4.65667,20.0378 q 0,-0.74084 0.52917,-1.23473 0.52917,-0.52916 1.27,-0.52916 0.74084,0 1.23472,0.52916 0.52917,0.49389 0.52917,1.23473 0,0.74083 -0.52917,1.27 -0.49388,0.52916 -1.23472,0.52916 -0.74083,0 -1.27,-0.52916 -0.52917,-0.52917 -0.52917,-1.27 z m -0.0353,-11.95918 q 0,-0.74083 0.52916,-1.27 0.52917,-0.52917 1.27,-0.52917 0.74084,0 1.27,0.52917 0.52917,0.52917 0.52917,1.27 0,0.74083 -0.52917,1.27 -0.52916,0.49389 -1.27,0.49389 -0.74083,0 -1.27,-0.49389 -0.52916,-0.52917 -0.52916,-1.27 z m 0,-11.99445 q 0,-0.74084 0.49388,-1.27 0.52917,-0.52917 1.27001,-0.52917 0.74083,0 1.27,0.52917 0.52916,0.52916 0.52916,1.27 0,0.74083 -0.52916,1.27 -0.52917,0.52917 -1.27,0.52917 -0.74084,0 -1.27001,-0.52917 -0.49388,-0.52917 -0.49388,-1.27 z m 4.7625,23.84779 q 0,-0.74083 0.49389,-1.23472 0.52917,-0.52917 1.27,-0.52917 0.74083,0 1.27,0.52917 0.52917,0.49389 0.52917,1.23472 0,0.74084 -0.52917,1.27 -0.52917,0.52917 -1.27,0.52917 -0.74083,0 -1.27,-0.52917 -0.49389,-0.52916 -0.49389,-1.27 z m -0.0353,-11.95917 q 0,-0.74084 0.52917,-1.27 0.52917,-0.52917 1.27,-0.52917 0.74083,0 1.23472,0.52917 0.52917,0.52916 0.52917,1.27 0,0.74083 -0.52917,1.27 -0.49389,0.49389 -1.23472,0.49389 -0.74083,0 -1.27,-0.49389 -0.52917,-0.52917 -0.52917,-1.27 z m -0.0353,-11.99446 q 0,-0.74083 0.52917,-1.27 0.52917,-0.52916 1.27,-0.52916 0.74083,0 1.27,0.52916 0.52917,0.52917 0.52917,1.27 0,0.74084 -0.52917,1.27001 -0.52917,0.52916 -1.27,0.52916 -0.74083,0 -1.27,-0.52916 -0.52917,-0.52917 -0.52917,-1.27001 z m 4.58612,23.95363 q 0,-0.74083 0.49389,-1.27 0.52916,-0.52917 1.27,-0.52917 0.74083,0 1.27,0.52917 0.52917,0.52917 0.52917,1.27 0,0.74084 -0.52917,1.27 -0.52917,0.52917 -1.27,0.52917 -0.74084,0 -1.27,-0.52917 -0.49389,-0.52916 -0.49389,-1.27 z m -0.0353,-11.99445 q 0,-0.74083 0.49389,-1.23472 0.52917,-0.52917 1.27,-0.52917 0.74083,0 1.27,0.52917 0.52917,0.49389 0.52917,1.23472 0,0.74083 -0.52917,1.27 -0.52917,0.52917 -1.27,0.52917 -0.74083,0 -1.27,-0.52917 -0.49389,-0.52917 -0.49389,-1.27 z m -0.0353,-11.95918 q 0,-0.74083 0.52917,-1.27 0.52917,-0.52916 1.27,-0.52916 0.74083,0 1.23472,0.52916 0.52917,0.52917 0.52917,1.27 0,0.74084 -0.52917,1.27001 -0.49389,0.49388 -1.23472,0.49388 -0.74083,0 -1.27,-0.49388 -0.52917,-0.52917 -0.52917,-1.27001 z m 4.69195,20.0378 q 0,-0.74084 0.52917,-1.27 0.52916,-0.52917 1.27,-0.52917 0.74083,0 1.23472,0.52917 0.52917,0.52916 0.52917,1.27 0,0.74083 -0.52917,1.27 -0.49389,0.52916 -1.23472,0.52916 -0.74084,0 -1.27,-0.52916 -0.52917,-0.52917 -0.52917,-1.27 z m 0,-3.9864 q 0,-0.74083 0.49389,-1.27 0.52917,-0.52916 1.27,-0.52916 0.74083,0 1.27,0.52916 0.52917,0.52917 0.52917,1.27 0,0.74084 -0.52917,1.27001 -0.52917,0.52916 -1.27,0.52916 -0.74083,0 -1.27,-0.52916 -0.49389,-0.52917 -0.49389,-1.27001 z m -0.0353,-11.99445 q 0,-0.74083 0.52917,-1.23472 0.52917,-0.52917 1.27,-0.52917 0.74083,0 1.23472,0.52917 0.52917,0.49389 0.52917,1.23472 0,0.74084 -0.52917,1.27 -0.49389,0.52917 -1.23472,0.52917 -0.74083,0 -1.27,-0.52917 -0.52917,-0.52916 -0.52917,-1.27 z"
                    id="path6100"/>
        </g>
    </g>
</svg>
