  0
SECTION
  2
HEADER
  9
$ACADVER
  1
AC1009
  9
$DWGCODEPAGE
  3
ansi_1252
  9
$INSBASE
 10
0.0
 20
0.0
 30
0.0
  9
$EXTMIN
 10
1.000000000000000E+20
 20
1.000000000000000E+20
 30
1.000000000000000E+20
  9
$EXTMAX
 10
-1.000000000000000E+20
 20
-1.000000000000000E+20
 30
-1.000000000000000E+20
  9
$LIMMIN
 10
0.0
 20
0.0
  9
$LIMMAX
 10
12.0
 20
9.0
  9
$ORTHOMODE
 70
     0
  9
$REGENMODE
 70
     1
  9
$FILLMODE
 70
     1
  9
$QTEXTMODE
 70
     0
  9
$MIRRTEXT
 70
     1
  9
$DRAGMODE
 70
     2
  9
$LTSCALE
 40
1.0
  9
$OSMODE
 70
    37
  9
$ATTMODE
 70
     1
  9
$TEXTSIZE
 40
0.2
  9
$TRACEWID
 40
0.05
  9
$TEXTSTYLE
  7
STANDARD
  9
$CLAYER
  8
0
  9
$CELTYPE
  6
BYLAYER
  9
$CECOLOR
 62
   256
  9
$DIMSCALE
 40
1.0
  9
$DIMASZ
 40
0.18
  9
$DIMEXO
 40
0.0625
  9
$DIMDLI
 40
0.38
  9
$DIMRND
 40
0.0
  9
$DIMDLE
 40
0.0
  9
$DIMEXE
 40
0.18
  9
$DIMTP
 40
0.0
  9
$DIMTM
 40
0.0
  9
$DIMTXT
 40
0.18
  9
$DIMCEN
 40
0.09
  9
$DIMTSZ
 40
0.0
  9
$DIMTOL
 70
     0
  9
$DIMLIM
 70
     0
  9
$DIMTIH
 70
     1
  9
$DIMTOH
 70
     1
  9
$DIMSE1
 70
     0
  9
$DIMSE2
 70
     0
  9
$DIMTAD
 70
     0
  9
$DIMZIN
 70
     0
  9
$DIMBLK
  1

  9
$DIMASO
 70
     1
  9
$DIMSHO
 70
     1
  9
$DIMPOST
  1

  9
$DIMAPOST
  1

  9
$DIMALT
 70
     0
  9
$DIMALTD
 70
     2
  9
$DIMALTF
 40
0.0393700787401575
  9
$DIMLFAC
 40
1.0
  9
$DIMTOFL
 70
     0
  9
$DIMTVP
 40
0.0
  9
$DIMTIX
 70
     0
  9
$DIMSOXD
 70
     0
  9
$DIMSAH
 70
     0
  9
$DIMBLK1
  1

  9
$DIMBLK2
  1

  9
$DIMSTYLE
  2
STANDARD
  9
$DIMCLRD
 70
     0
  9
$DIMCLRE
 70
     0
  9
$DIMCLRT
 70
     0
  9
$DIMTFAC
 40
1.0
  9
$DIMGAP
 40
0.09
  9
$LUNITS
 70
     2
  9
$LUPREC
 70
     4
  9
$SKETCHINC
 40
0.1
  9
$FILLETRAD
 40
0.5
  9
$AUNITS
 70
     0
  9
$AUPREC
 70
     0
  9
$MENU
  1
.
  9
$ELEVATION
 40
0.0
  9
$PELEVATION
 40
0.0
  9
$THICKNESS
 40
0.0
  9
$LIMCHECK
 70
     0
  9
$CHAMFERA
 40
0.0
  9
$CHAMFERB
 40
0.0
  9
$SKPOLY
 70
     0
  9
$TDCREATE
 40
2459482.66976831
  9
$TDUPDATE
 40
2459482.669768333
  9
$TDINDWG
 40
0.0000000116
  9
$TDUSRTIMER
 40
0.0000000116
  9
$USRTIMER
 70
     1
  9
$ANGBASE
 50
0.0
  9
$ANGDIR
 70
     0
  9
$PDMODE
 70
     0
  9
$PDSIZE
 40
0.0
  9
$PLINEWID
 40
0.0
  9
$COORDS
 70
     1
  9
$SPLFRAME
 70
     0
  9
$SPLINETYPE
 70
     6
  9
$SPLINESEGS
 70
     8
  9
$ATTDIA
 70
     0
  9
$ATTREQ
 70
     1
  9
$HANDLING
 70
     1
  9
$HANDSEED
  5
100001D0
  9
$SURFTAB1
 70
     6
  9
$SURFTAB2
 70
     6
  9
$SURFTYPE
 70
     6
  9
$SURFU
 70
     6
  9
$SURFV
 70
     6
  9
$UCSNAME
  2

  9
$UCSORG
 10
0.0
 20
0.0
 30
0.0
  9
$UCSXDIR
 10
1.0
 20
0.0
 30
0.0
  9
$UCSYDIR
 10
0.0
 20
1.0
 30
0.0
  9
$PUCSNAME
  2

  9
$PUCSORG
 10
0.0
 20
0.0
 30
0.0
  9
$PUCSXDIR
 10
1.0
 20
0.0
 30
0.0
  9
$PUCSYDIR
 10
0.0
 20
1.0
 30
0.0
  9
$USERI1
 70
     0
  9
$USERI2
 70
     0
  9
$USERI3
 70
     0
  9
$USERI4
 70
     0
  9
$USERI5
 70
     0
  9
$USERR1
 40
0.0
  9
$USERR2
 40
0.0
  9
$USERR3
 40
0.0
  9
$USERR4
 40
0.0
  9
$USERR5
 40
0.0
  9
$WORLDVIEW
 70
     1
  9
$SHADEDGE
 70
     3
  9
$SHADEDIF
 70
    70
  9
$TILEMODE
 70
     1
  9
$MAXACTVP
 70
    64
  9
$PLIMCHECK
 70
     0
  9
$PEXTMIN
 10
1.000000000000000E+20
 20
1.000000000000000E+20
 30
1.000000000000000E+20
  9
$PEXTMAX
 10
-1.000000000000000E+20
 20
-1.000000000000000E+20
 30
-1.000000000000000E+20
  9
$PLIMMIN
 10
0.0
 20
0.0
  9
$PLIMMAX
 10
12.0
 20
9.0
  9
$UNITMODE
 70
     0
  9
$VISRETAIN
 70
     1
  9
$PLINEGEN
 70
     0
  9
$PSLTSCALE
 70
     1
  0
ENDSEC
  0
SECTION
  2
TABLES
  0
TABLE
  2
VPORT
 70
     1
  0
VPORT
  2
*ACTIVE
 70
     0
 10
0.0
 20
0.0
 11
1.0
 21
1.0
 12
10.42990654205607
 22
4.5
 13
0.0
 23
0.0
 14
0.5
 24
0.5
 15
0.5
 25
0.5
 16
0.0
 26
0.0
 36
1.0
 17
0.0
 27
0.0
 37
0.0
 40
9.0
 41
1.972972972850329
 42
50.0
 43
0.0
 44
0.0
 50
0.0
 51
0.0
 71
     0
 72
   100
 73
     1
 74
     3
 75
     0
 76
     0
 77
     0
 78
     0
  0
ENDTAB
  0
TABLE
  2
LTYPE
 70
     7
  0
LTYPE
  2
CONTINUOUS
 70
     0
  3
Solid line
 72
    65
 73
     0
 40
0.0
  0
LTYPE
  2
ONS_PHANTOM
 70
     0
  3
Onshape Phantom line ______ __ __ ______
 72
    65
 73
     6
 40
0.4999999999999999
 49
0.25
 49
-0.05
 49
0.05
 49
-0.05
 49
0.05
 49
-0.05
  0
LTYPE
  2
CENTER
 70
     0
  3
Center line ____ _ ____ _ ____ _
 72
    65
 73
     4
 40
0.7199999999999999
 49
0.45
 49
-0.09
 49
0.09
 49
-0.09
  0
LTYPE
  2
DASHED
 70
     0
  3
Dashed line __ __ __ __ __
 72
    65
 73
     2
 40
0.75
 49
0.5
 49
-0.25
  0
LTYPE
  2
ONS_DASHDOT
 70
     0
  3
Onshape Dashed with Dot _ . ____ . ____
 72
    65
 73
     4
 40
0.71
 49
0.5
 49
-0.1
 49
0.01
 49
-0.1
  0
LTYPE
  2
ONS_DOTTED
 70
     0
  3
Onshape Dotted line . . . . . . .
 72
    65
 73
     2
 40
0.11
 49
0.01
 49
-0.1
  0
LTYPE
  2
HIDDEN
 70
     0
  3
Hidden line ____ ____ ____ ____ 
 72
    65
 73
     2
 40
0.15
 49
0.1
 49
-0.05
  0
ENDTAB
  0
TABLE
  2
LAYER
 70
    39
  0
LAYER
  2
0
 70
     0
 62
     7
  6
CONTINUOUS
  0
LAYER
  2
SECTION_CUTTING_LINE
 70
     0
 62
     7
  6
ONS_PHANTOM
  0
LAYER
  2
DETAIL_VIEW_BORDER
 70
     0
 62
     7
  6
CONTINUOUS
  0
LAYER
  2
DETAIL_VIEW_PARENT_BORDER
 70
     0
 62
     7
  6
ONS_PHANTOM
  0
LAYER
  2
TEXT
 70
     0
 62
     7
  6
CONTINUOUS
  0
LAYER
  2
SKETCHED_GEOMETRY
 70
     0
 62
    -7
  6
CONTINUOUS
  0
LAYER
  2
VIRTUAL_SHARPS
 70
     0
 62
    -7
  6
CONTINUOUS
  0
LAYER
  2
CENTERLINES
 70
     0
 62
    -7
  6
CENTER
  0
LAYER
  2
CENTERMARKS
 70
     0
 62
    -7
  6
CONTINUOUS
  0
LAYER
  2
TABLES
 70
     0
 62
     7
  6
CONTINUOUS
  0
LAYER
  2
IMAGES
 70
     0
 62
    -7
  6
CONTINUOUS
  0
LAYER
  2
ANNOTATION_LINES
 70
     0
 62
    -7
  6
CONTINUOUS
  0
LAYER
  2
ANNOTATION_TEXT
 70
     0
 62
    -7
  6
CONTINUOUS
  0
LAYER
  2
SIDE_THREAD_SYMBOLS
 70
     0
 62
     7
  6
HIDDEN
  0
LAYER
  2
SIDE_THREAD_SYMBOLS_HIDDEN
 70
     0
 62
    -7
  6
HIDDEN
  0
LAYER
  2
SURFACE_THREAD_SYMBOLS
 70
     0
 62
     7
  6
HIDDEN
  0
LAYER
  2
SURFACE_THREAD_SYMBOLS_ON_
 70
     0
 62
     7
  6
HIDDEN
  0
LAYER
  2
SURFACE_THREAD_SYMBOLS_HID
 70
     0
 62
    -7
  6
HIDDEN
  0
LAYER
  2
BLIND_THREAD_SYMBOLS
 70
     0
 62
     7
  6
CONTINUOUS
  0
LAYER
  2
BLIND_THREAD_SYMBOLS_HIDDE
 70
     0
 62
    -7
  6
HIDDEN
  0
LAYER
  2
EXPLODE_LINES
 70
     0
 62
     7
  6
ONS_PHANTOM
  0
LAYER
  2
HIDDEN_EXPLODE_LINES
 70
     0
 62
    -7
  6
ONS_PHANTOM
  0
LAYER
  2
BREAK_LINES
 70
     0
 62
    -7
  6
CONTINUOUS
  0
LAYER
  2
SHEETMETAL_BEND_LINES_UP
 70
     0
 62
     7
  6
CENTER
  0
LAYER
  2
SHEETMETAL_BEND_LINES_DOWN
 70
     0
 62
     7
  6
CENTER
  0
LAYER
  2
SHEETMETAL_BEND_TANGENT_LI
 70
     0
 62
     7
  6
CONTINUOUS
  0
LAYER
  2
SHEETMETAL_CUT_LINES
 70
     0
 62
     7
  6
CONTINUOUS
  0
LAYER
  2
REGION_ASSOC_POINTS
 70
     0
 62
    -7
  6
CONTINUOUS
  0
LAYER
  2
HIDDEN
 70
     0
 62
    -7
  6
HIDDEN
  0
LAYER
  2
VISIBLE
 70
     0
 62
     7
  6
CONTINUOUS
  0
LAYER
  2
MODELSKETCH_VISIBLE
 70
     0
 62
     7
  6
CONTINUOUS
  0
LAYER
  2
MODELSKETCH_POINT
 70
     0
 62
     7
  6
CONTINUOUS
  0
LAYER
  2
MODELSKETCH_CONSTRUCTION
 70
     0
 62
    -7
  6
CENTER
  0
LAYER
  2
HIDDEN_BASE_VIEW
 70
     0
 62
     7
  6
CONTINUOUS
  0
LAYER
  2
TANGENT_LINES
 70
     0
 62
    -7
  6
CONTINUOUS
  0
LAYER
  2
TANGENT_HIDDEN
 70
     0
 62
    -7
  6
HIDDEN
  0
LAYER
  2
INVISIBLE_LINES
 70
     0
 62
    -7
  6
CONTINUOUS
  0
LAYER
  2
VIEW_HATCHES
 70
     0
 62
    -7
  6
CONTINUOUS
  0
LAYER
  2
SECTION_JOG_LINES
 70
     0
 62
    -7
  6
CONTINUOUS
  0
ENDTAB
  0
TABLE
  2
STYLE
 70
     2
  0
STYLE
  2
STANDARD
 70
     0
 40
0.0
 41
1.0
 50
0.0
 71
     0
 42
0.2
  3
txt
  4

  0
STYLE
  2
TTFSTYLE
 70
     0
 40
0.0
 41
1.0
 50
0.0
 71
     0
 42
0.2
  3
Verdana.ttf
  4

  0
ENDTAB
  0
TABLE
  2
VIEW
 70
     0
  0
ENDTAB
  0
TABLE
  2
UCS
 70
     0
  0
ENDTAB
  0
TABLE
  2
APPID
 70
     1
  0
APPID
  2
ACAD
 70
     0
  0
ENDTAB
  0
TABLE
  2
DIMSTYLE
 70
     1
  0
DIMSTYLE
  2
STANDARD
 70
     0
  3

  4

  5

  6

  7

 40
1.0
 41
0.18
 42
0.0625
 43
0.38
 44
0.18
 45
0.0
 46
0.0
 47
0.0
 48
0.0
140
0.18
141
0.09
142
0.0
143
25.4
144
1.0
145
0.0
146
1.0
147
0.09
 71
     0
 72
     0
 73
     1
 74
     1
 75
     0
 76
     0
 77
     0
 78
     0
170
     0
171
     2
172
     0
173
     0
174
     0
175
     0
176
     0
177
     0
178
     0
  0
ENDTAB
  0
ENDSEC
  0
SECTION
  2
BLOCKS
  0
BLOCK
  8
0
  2
$MODEL_SPACE
 70
     0
 10
0.0
 20
0.0
 30
0.0
  3
$MODEL_SPACE
  1

  0
ENDBLK
  5
21
  8
0
  0
BLOCK
 67
     1
  8
0
  2
$PAPER_SPACE
 70
     0
 10
0.0
 20
0.0
 30
0.0
  3
$PAPER_SPACE
  1

  0
ENDBLK
  5
1D
 67
     1
  8
0
  0
ENDSEC
  0
SECTION
  2
ENTITIES
  0
LINE
  5
10000050
  8
MODELSKETCH_VISIBLE
 10
13.44000000000001
 20
0.0
 30
0.0
 11
22.93333333333334
 21
0.0
 31
0.0
  0
LINE
  5
10000053
  8
MODELSKETCH_VISIBLE
 10
13.44000000000001
 20
3.392893218813467
 30
0.0
 11
13.44000000000001
 21
0.0
 31
0.0
  0
ARC
  5
10000056
  8
MODELSKETCH_VISIBLE
 10
13.08644660940673
 20
3.746446609406741
 30
0.0
 40
0.5
 50
315.0000000000001
 51
135.0000000000024
  0
LINE
  5
10000059
  8
MODELSKETCH_VISIBLE
 10
5.453773447853249
 20
4.1
 30
0.0
 11
12.73289321881344
 21
4.1
 31
0.0
  0
ARC
  5
1000005C
  8
MODELSKETCH_VISIBLE
 10
5.100220057259953
 20
3.746446609406748
 30
0.0
 40
0.5
 50
44.99999999999639
 51
224.9999999999998
  0
LINE
  5
1000005F
  8
MODELSKETCH_VISIBLE
 10
4.746666666666678
 20
0.0
 30
0.0
 11
4.746666666666678
 21
3.392893218813475
 31
0.0
  0
LINE
  5
10000062
  8
MODELSKETCH_VISIBLE
 10
-4.746666666666658
 20
0.0
 30
0.0
 11
4.746666666666678
 21
0.0
 31
0.0
  0
LINE
  5
10000065
  8
MODELSKETCH_VISIBLE
 10
-4.746666666666658
 20
3.392893218813463
 30
0.0
 11
-4.746666666666658
 21
0.0
 31
0.0
  0
ARC
  5
10000068
  8
MODELSKETCH_VISIBLE
 10
-5.100220057259927
 20
3.746446609406741
 30
0.0
 40
0.4999999999999999
 50
314.9999999999992
 51
135.0000000000024
  0
LINE
  5
1000006B
  8
MODELSKETCH_VISIBLE
 10
-12.73289321881342
 20
4.1
 30
0.0
 11
-5.453773447853216
 21
4.1
 31
0.0
  0
LINE
  5
1000006E
  8
MODELSKETCH_VISIBLE
 10
-32.90000000000003
 20
12.6
 30
0.0
 11
-41.10000000000002
 21
12.6
 31
0.0
  0
LINE
  5
10000071
  8
MODELSKETCH_VISIBLE
 10
-32.90000000000003
 20
9.2
 30
0.0
 11
-32.90000000000003
 21
12.6
 31
0.0
  0
LINE
  5
10000074
  8
MODELSKETCH_VISIBLE
 10
-41.10000000000002
 20
9.2
 30
0.0
 11
-32.90000000000003
 21
9.2
 31
0.0
  0
LINE
  5
10000077
  8
MODELSKETCH_VISIBLE
 10
-41.10000000000002
 20
12.6
 30
0.0
 11
-41.10000000000002
 21
9.2
 31
0.0
  0
ARC
  5
1000007A
  8
MODELSKETCH_VISIBLE
 10
-32.50000000000003
 20
13.4
 30
0.0
 40
1.000000000000001
 50
0.0
 51
90.0
  0
LINE
  5
1000007D
  8
MODELSKETCH_VISIBLE
 10
-31.50000000000003
 20
8.399999999999999
 30
0.0
 11
-31.50000000000003
 21
13.4
 31
0.0
  0
ARC
  5
10000080
  8
MODELSKETCH_VISIBLE
 10
-32.50000000000003
 20
8.399999999999999
 30
0.0
 40
1.0
 50
270.0
 51
0.0
  0
LINE
  5
10000083
  8
MODELSKETCH_VISIBLE
 10
-41.50000000000002
 20
7.399999999999997
 30
0.0
 11
-32.50000000000003
 21
7.399999999999997
 31
0.0
  0
ARC
  5
10000086
  8
MODELSKETCH_VISIBLE
 10
-41.50000000000002
 20
8.40000000000001
 30
0.0
 40
1.000000000000006
 50
180.0000000000006
 51
270.0
  0
LINE
  5
10000089
  8
MODELSKETCH_VISIBLE
 10
-42.50000000000002
 20
13.4
 30
0.0
 11
-42.50000000000002
 21
8.399999999999999
 31
0.0
  0
ARC
  5
1000008C
  8
MODELSKETCH_VISIBLE
 10
-41.50000000000002
 20
13.39999999999998
 30
0.0
 40
1.000000000000007
 50
90.0
 51
179.9999999999993
  0
LINE
  5
1000008F
  8
MODELSKETCH_VISIBLE
 10
-32.50000000000003
 20
14.4
 30
0.0
 11
-41.50000000000002
 21
14.4
 31
0.0
  0
CIRCLE
  5
10000092
  8
MODELSKETCH_VISIBLE
 10
-25.15000000000002
 20
13.7
 30
0.0
 40
2.25
  0
LINE
  5
10000095
  8
MODELSKETCH_VISIBLE
 10
-68.19999999999997
 20
10.34000000000001
 30
0.0
 11
-64.8071067811865
 21
10.34000000000001
 31
0.0
  0
LINE
  5
10000098
  8
MODELSKETCH_VISIBLE
 10
-68.19999999999997
 20
17.18000000000001
 30
0.0
 11
-68.19999999999997
 21
10.34000000000001
 31
0.0
  0
LINE
  5
1000009B
  8
MODELSKETCH_VISIBLE
 10
-64.8071067811865
 20
17.18000000000001
 30
0.0
 11
-68.19999999999997
 21
17.18000000000001
 31
0.0
  0
ARC
  5
1000009E
  8
MODELSKETCH_VISIBLE
 10
-64.45355339059323
 20
17.53355339059329
 30
0.0
 40
0.5000000000000007
 50
225.0
 51
45.00000000000117
  0
LINE
  5
100000A1
  8
MODELSKETCH_VISIBLE
 10
-64.09999999999997
 20
22.5128932188135
 30
0.0
 11
-64.09999999999997
 21
17.88710678118656
 31
0.0
  0
ARC
  5
100000A4
  8
MODELSKETCH_VISIBLE
 10
-64.45355339059327
 20
22.86644660940673
 30
0.0
 40
0.4999999999999983
 50
315.0000000000061
 51
135.0000000000003
  0
LINE
  5
100000A7
  8
MODELSKETCH_VISIBLE
 10
-68.19999999999997
 20
23.22000000000001
 30
0.0
 11
-64.80710678118655
 21
23.22000000000001
 31
0.0
  0
LINE
  5
100000AA
  8
MODELSKETCH_VISIBLE
 10
-68.19999999999997
 20
30.06000000000001
 30
0.0
 11
-68.19999999999997
 21
23.22000000000001
 31
0.0
  0
LINE
  5
100000AD
  8
MODELSKETCH_VISIBLE
 10
-64.8071067811865
 20
30.06000000000001
 30
0.0
 11
-68.19999999999997
 21
30.06000000000001
 31
0.0
  0
ARC
  5
100000B0
  8
MODELSKETCH_VISIBLE
 10
-64.45355339059323
 20
30.41355339059328
 30
0.0
 40
0.4999999999999983
 50
224.9999999999997
 51
45.00000000000087
  0
LINE
  5
100000B3
  8
MODELSKETCH_VISIBLE
 10
-64.09999999999997
 20
36.3
 30
0.0
 11
-64.09999999999997
 21
30.76710678118655
 31
0.0
  0
LINE
  5
100000B6
  8
MODELSKETCH_VISIBLE
 10
-60.01377344785316
 20
36.3
 30
0.0
 11
-64.09999999999997
 21
36.3
 31
0.0
  0
ARC
  5
100000B9
  8
MODELSKETCH_VISIBLE
 10
-59.6602200572599
 20
36.65355339059329
 30
0.0
 40
0.4999999999999983
 50
225.0000000000017
 51
45.00000000000401
  0
LINE
  5
100000BC
  8
MODELSKETCH_VISIBLE
 10
-59.30666666666665
 20
40.40000000000001
 30
0.0
 11
-59.30666666666665
 21
37.00710678118659
 31
0.0
  0
LINE
  5
100000BF
  8
MODELSKETCH_VISIBLE
 10
-49.81333333333331
 20
40.40000000000001
 30
0.0
 11
-59.30666666666665
 21
40.40000000000001
 31
0.0
  0
LINE
  5
100000C2
  8
MODELSKETCH_VISIBLE
 10
-49.81333333333331
 20
37.00710678118656
 30
0.0
 11
-49.81333333333331
 21
40.40000000000001
 31
0.0
  0
ARC
  5
100000C5
  8
MODELSKETCH_VISIBLE
 10
-49.45977994274005
 20
36.65355339059328
 30
0.0
 40
0.4999999999999983
 50
134.9999999999989
 51
315.0
  0
LINE
  5
100000C8
  8
MODELSKETCH_VISIBLE
 10
-41.82710678118653
 20
36.3
 30
0.0
 11
-49.10622655214677
 21
36.3
 31
0.0
  0
ARC
  5
100000CB
  8
MODELSKETCH_VISIBLE
 10
-41.47355339059325
 20
36.65355339059329
 30
0.0
 40
0.5000000000000031
 50
225.0000000000006
 51
45.00000000000056
  0
LINE
  5
100000CE
  8
MODELSKETCH_VISIBLE
 10
-41.11999999999998
 20
40.40000000000001
 30
0.0
 11
-41.11999999999998
 21
37.00710678118656
 31
0.0
  0
LINE
  5
100000D1
  8
MODELSKETCH_VISIBLE
 10
-31.62666666666664
 20
40.40000000000001
 30
0.0
 11
-41.11999999999998
 21
40.40000000000001
 31
0.0
  0
LINE
  5
100000D4
  8
MODELSKETCH_VISIBLE
 10
-31.62666666666664
 20
37.00710678118656
 30
0.0
 11
-31.62666666666664
 21
40.40000000000001
 31
0.0
  0
ARC
  5
100000D7
  8
MODELSKETCH_VISIBLE
 10
-31.27311327607338
 20
36.65355339059329
 30
0.0
 40
0.4999999999999983
 50
134.9999999999991
 51
314.9999999999986
  0
LINE
  5
100000DA
  8
MODELSKETCH_VISIBLE
 10
-23.64044011451985
 20
36.3
 30
0.0
 11
-30.91955988548011
 21
36.3
 31
0.0
  0
ARC
  5
100000DD
  8
MODELSKETCH_VISIBLE
 10
59.66022005725994
 20
3.746446609406734
 30
0.0
 40
0.5000000000000006
 50
44.99999999999934
 51
224.9999999999999
  0
LINE
  5
100000E0
  8
MODELSKETCH_VISIBLE
 10
60.01377344785322
 20
4.1
 30
0.0
 11
64.09999999999997
 21
4.1
 31
0.0
  0
LINE
  5
100000E3
  8
MODELSKETCH_VISIBLE
 10
-30.91955988548008
 20
4.1
 30
0.0
 11
-23.64044011451988
 21
4.1
 31
0.0
  0
LINE
  5
100000E6
  8
MODELSKETCH_VISIBLE
 10
64.09999999999997
 20
4.1
 30
0.0
 11
64.09999999999997
 21
9.632893218813456
 31
0.0
  0
ARC
  5
100000E9
  8
MODELSKETCH_VISIBLE
 10
-23.2868867239266
 20
3.746446609406727
 30
0.0
 40
0.5
 50
315.0000000000015
 51
135.0000000000004
  0
ARC
  5
100000EC
  8
MODELSKETCH_VISIBLE
 10
-64.45355339059323
 20
9.986446609406743
 30
0.0
 40
0.4999999999999994
 50
314.9999999999991
 51
135.0000000000002
  0
LINE
  5
100000EF
  8
MODELSKETCH_VISIBLE
 10
4.746666666666678
 20
40.40000000000001
 30
0.0
 11
-4.746666666666658
 21
40.40000000000001
 31
0.0
  0
ARC
  5
100000F2
  8
MODELSKETCH_VISIBLE
 10
64.45355339059323
 20
9.98644660940673
 30
0.0
 40
0.4999999999999994
 50
44.99999999999969
 51
225.000000000001
  0
LINE
  5
100000F5
  8
MODELSKETCH_VISIBLE
 10
-64.09999999999997
 20
9.63289321881347
 30
0.0
 11
-64.09999999999997
 21
4.1
 31
0.0
  0
LINE
  5
100000F8
  8
MODELSKETCH_VISIBLE
 10
-4.746666666666658
 20
40.40000000000001
 30
0.0
 11
-4.746666666666658
 21
37.00710678118656
 31
0.0
  0
LINE
  5
100000FB
  8
MODELSKETCH_VISIBLE
 10
64.8071067811865
 20
10.34000000000001
 30
0.0
 11
68.19999999999997
 21
10.34000000000001
 31
0.0
  0
LINE
  5
100000FE
  8
MODELSKETCH_VISIBLE
 10
-64.09999999999997
 20
4.1
 30
0.0
 11
-60.01377344785318
 21
4.1
 31
0.0
  0
ARC
  5
10000101
  8
MODELSKETCH_VISIBLE
 10
-5.100220057259929
 20
36.65355339059328
 30
0.0
 40
0.5
 50
225.0000000000001
 51
45.00000000000066
  0
LINE
  5
10000104
  8
MODELSKETCH_VISIBLE
 10
68.19999999999997
 20
10.34000000000001
 30
0.0
 11
68.19999999999997
 21
17.18000000000001
 31
0.0
  0
LINE
  5
10000107
  8
MODELSKETCH_VISIBLE
 10
68.19999999999997
 20
17.18000000000001
 30
0.0
 11
64.8071067811865
 21
17.18000000000001
 31
0.0
  0
ARC
  5
1000010A
  8
MODELSKETCH_VISIBLE
 10
23.28688672392662
 20
3.746446609406748
 30
0.0
 40
0.5000000000000006
 50
44.99999999999654
 51
224.9999999999997
  0
ARC
  5
1000010D
  8
MODELSKETCH_VISIBLE
 10
-31.27311327607337
 20
3.746446609406741
 30
0.0
 40
0.4999999999999999
 50
44.99999999999735
 51
225.0000000000001
  0
ARC
  5
10000110
  8
MODELSKETCH_VISIBLE
 10
64.45355339059323
 20
17.53355339059328
 30
0.0
 40
0.4999999999999983
 50
134.9999999999991
 51
315.0000000000003
  0
LINE
  5
10000113
  8
MODELSKETCH_VISIBLE
 10
49.81333333333334
 20
40.40000000000001
 30
0.0
 11
49.81333333333334
 21
37.00710678118655
 31
0.0
  0
ARC
  5
10000116
  8
MODELSKETCH_VISIBLE
 10
49.45977994274006
 20
36.65355339059328
 30
0.0
 40
0.5000000000000031
 50
224.9999999999994
 51
44.99999999999944
  0
LINE
  5
10000119
  8
MODELSKETCH_VISIBLE
 10
49.10622655214678
 20
36.3
 30
0.0
 11
41.82710678118656
 21
36.3
 31
0.0
  0
ARC
  5
1000011C
  8
MODELSKETCH_VISIBLE
 10
41.47355339059327
 20
36.65355339059328
 30
0.0
 40
0.5000000000000031
 50
134.9999999999994
 51
315.0000000000006
  0
LINE
  5
1000011F
  8
MODELSKETCH_VISIBLE
 10
22.93333333333334
 20
0.0
 30
0.0
 11
22.93333333333334
 21
3.392893218813475
 31
0.0
  0
LINE
  5
10000122
  8
MODELSKETCH_VISIBLE
 10
41.12
 20
40.40000000000001
 30
0.0
 11
31.62666666666667
 21
40.40000000000001
 31
0.0
  0
LINE
  5
10000125
  8
MODELSKETCH_VISIBLE
 10
41.12
 20
37.00710678118656
 30
0.0
 11
41.12
 21
40.40000000000001
 31
0.0
  0
LINE
  5
10000128
  8
MODELSKETCH_VISIBLE
 10
23.64044011451991
 20
4.1
 30
0.0
 11
30.91955988548012
 21
4.1
 31
0.0
  0
LINE
  5
1000012B
  8
MODELSKETCH_VISIBLE
 10
59.30666666666666
 20
40.40000000000001
 30
0.0
 11
49.81333333333334
 21
40.40000000000001
 31
0.0
  0
LINE
  5
1000012E
  8
MODELSKETCH_VISIBLE
 10
59.30666666666666
 20
37.00710678118655
 30
0.0
 11
59.30666666666666
 21
40.40000000000001
 31
0.0
  0
ARC
  5
10000131
  8
MODELSKETCH_VISIBLE
 10
59.66022005725995
 20
36.65355339059328
 30
0.0
 40
0.5000000000000031
 50
135.0000000000011
 51
315.0
  0
LINE
  5
10000134
  8
MODELSKETCH_VISIBLE
 10
64.09999999999997
 20
36.3
 30
0.0
 11
60.01377344785323
 21
36.3
 31
0.0
  0
LINE
  5
10000137
  8
MODELSKETCH_VISIBLE
 10
64.09999999999997
 20
30.76710678118655
 30
0.0
 11
64.09999999999997
 21
36.3
 31
0.0
  0
ARC
  5
1000013A
  8
MODELSKETCH_VISIBLE
 10
-13.08644660940671
 20
3.746446609406741
 30
0.0
 40
0.5
 50
44.99999999999771
 51
224.9999999999996
  0
ARC
  5
1000013D
  8
MODELSKETCH_VISIBLE
 10
64.45355339059323
 20
30.41355339059328
 30
0.0
 40
0.4999999999999983
 50
134.9999999999991
 51
315.0000000000003
  0
LINE
  5
10000140
  8
MODELSKETCH_VISIBLE
 10
-13.43999999999999
 20
0.0
 30
0.0
 11
-13.43999999999999
 21
3.392893218813469
 31
0.0
  0
LINE
  5
10000143
  8
MODELSKETCH_VISIBLE
 10
68.19999999999997
 20
30.06000000000001
 30
0.0
 11
64.8071067811865
 21
30.06000000000001
 31
0.0
  0
LINE
  5
10000146
  8
MODELSKETCH_VISIBLE
 10
-22.93333333333332
 20
0.0
 30
0.0
 11
-13.43999999999999
 21
0.0
 31
0.0
  0
LINE
  5
10000149
  8
MODELSKETCH_VISIBLE
 10
68.19999999999997
 20
23.22000000000001
 30
0.0
 11
68.19999999999997
 21
30.06000000000001
 31
0.0
  0
LINE
  5
1000014C
  8
MODELSKETCH_VISIBLE
 10
-22.93333333333332
 20
3.392893218813462
 30
0.0
 11
-22.93333333333332
 21
0.0
 31
0.0
  0
LINE
  5
1000014F
  8
MODELSKETCH_VISIBLE
 10
64.80710678118649
 20
23.22000000000001
 30
0.0
 11
68.19999999999997
 21
23.22000000000001
 31
0.0
  0
LINE
  5
10000152
  8
MODELSKETCH_VISIBLE
 10
-31.62666666666664
 20
0.0
 30
0.0
 11
-31.62666666666664
 21
3.392893218813466
 31
0.0
  0
LINE
  5
10000155
  8
MODELSKETCH_VISIBLE
 10
59.30666666666666
 20
0.0
 30
0.0
 11
59.30666666666666
 21
3.392893218813458
 31
0.0
  0
LINE
  5
10000158
  8
MODELSKETCH_VISIBLE
 10
-41.11999999999998
 20
0.0
 30
0.0
 11
-31.62666666666664
 21
0.0
 31
0.0
  0
LINE
  5
1000015B
  8
MODELSKETCH_VISIBLE
 10
49.81333333333334
 20
0.0
 30
0.0
 11
59.30666666666666
 21
0.0
 31
0.0
  0
LINE
  5
1000015E
  8
MODELSKETCH_VISIBLE
 10
41.12
 20
0.0
 30
0.0
 11
41.12
 21
3.392893218813466
 31
0.0
  0
LINE
  5
10000161
  8
MODELSKETCH_VISIBLE
 10
-59.30666666666665
 20
0.0
 30
0.0
 11
-49.81333333333331
 21
0.0
 31
0.0
  0
LINE
  5
10000164
  8
MODELSKETCH_VISIBLE
 10
-13.43999999999999
 20
37.00710678118656
 30
0.0
 11
-13.43999999999999
 21
40.40000000000001
 31
0.0
  0
LINE
  5
10000167
  8
MODELSKETCH_VISIBLE
 10
31.62666666666667
 20
0.0
 30
0.0
 11
41.12
 21
0.0
 31
0.0
  0
ARC
  5
1000016A
  8
MODELSKETCH_VISIBLE
 10
41.47355339059327
 20
3.746446609406741
 30
0.0
 40
0.4999999999999999
 50
44.99999999999761
 51
225.0000000000004
  0
LINE
  5
1000016D
  8
MODELSKETCH_VISIBLE
 10
-49.10622655214675
 20
4.1
 30
0.0
 11
-41.82710678118654
 21
4.1
 31
0.0
  0
ARC
  5
10000170
  8
MODELSKETCH_VISIBLE
 10
-23.2868867239266
 20
36.6535533905933
 30
0.0
 40
0.4999999999999983
 50
225.0000000000026
 51
44.99999999999858
  0
LINE
  5
10000173
  8
MODELSKETCH_VISIBLE
 10
41.82710678118656
 20
4.1
 30
0.0
 11
49.10622655214677
 21
4.1
 31
0.0
  0
ARC
  5
10000176
  8
MODELSKETCH_VISIBLE
 10
-41.47355339059325
 20
3.746446609406734
 30
0.0
 40
0.4999999999999999
 50
314.9999999999996
 51
135.0000000000013
  0
ARC
  5
10000179
  8
MODELSKETCH_VISIBLE
 10
49.45977994274006
 20
3.746446609406741
 30
0.0
 40
0.5000000000000007
 50
315.0000000000006
 51
135.0000000000023
  0
LINE
  5
1000017C
  8
MODELSKETCH_VISIBLE
 10
-41.11999999999998
 20
3.392893218813459
 30
0.0
 11
-41.11999999999998
 21
0.0
 31
0.0
  0
LINE
  5
1000017F
  8
MODELSKETCH_VISIBLE
 10
49.81333333333334
 20
3.392893218813472
 30
0.0
 11
49.81333333333334
 21
0.0
 31
0.0
  0
ARC
  5
10000182
  8
MODELSKETCH_VISIBLE
 10
-59.6602200572599
 20
3.746446609406734
 30
0.0
 40
0.5000000000000007
 50
314.9999999999955
 51
135.0000000000006
  0
LINE
  5
10000185
  8
MODELSKETCH_VISIBLE
 10
-5.453773447853203
 20
36.3
 30
0.0
 11
-12.73289321881344
 21
36.3
 31
0.0
  0
ARC
  5
10000188
  8
MODELSKETCH_VISIBLE
 10
31.2731132760734
 20
3.746446609406734
 30
0.0
 40
0.5000000000000007
 50
314.9999999999998
 51
135.0000000000014
  0
LINE
  5
1000018B
  8
MODELSKETCH_VISIBLE
 10
-49.81333333333331
 20
0.0
 30
0.0
 11
-49.81333333333331
 21
3.392893218813473
 31
0.0
  0
LINE
  5
1000018E
  8
MODELSKETCH_VISIBLE
 10
-13.43999999999999
 20
40.40000000000001
 30
0.0
 11
-22.93333333333332
 21
40.40000000000001
 31
0.0
  0
LINE
  5
10000191
  8
MODELSKETCH_VISIBLE
 10
64.09999999999997
 20
17.88710678118656
 30
0.0
 11
64.09999999999997
 21
22.51289321881345
 31
0.0
  0
LINE
  5
10000194
  8
MODELSKETCH_VISIBLE
 10
-59.30666666666665
 20
3.39289321881343
 30
0.0
 11
-59.30666666666665
 21
0.0
 31
0.0
  0
ARC
  5
10000197
  8
MODELSKETCH_VISIBLE
 10
-13.08644660940672
 20
36.65355339059328
 30
0.0
 40
0.5000000000000007
 50
134.9999999999994
 51
315.0
  0
LINE
  5
1000019A
  8
MODELSKETCH_VISIBLE
 10
31.62666666666667
 20
3.392893218813458
 30
0.0
 11
31.62666666666667
 21
0.0
 31
0.0
  0
ARC
  5
1000019D
  8
MODELSKETCH_VISIBLE
 10
-49.45977994274004
 20
3.746446609406748
 30
0.0
 40
0.5
 50
44.99999999999704
 51
225.0000000000004
  0
LINE
  5
100001A0
  8
MODELSKETCH_VISIBLE
 10
-22.93333333333332
 20
40.40000000000001
 30
0.0
 11
-22.93333333333332
 21
37.00710678118656
 31
0.0
  0
ARC
  5
100001A3
  8
MODELSKETCH_VISIBLE
 10
64.45355339059323
 20
22.86644660940672
 30
0.0
 40
0.4999999999999983
 50
45.00000000000204
 51
225.0000000000009
  0
LINE
  5
100001A6
  8
MODELSKETCH_VISIBLE
 10
31.62666666666667
 20
40.40000000000001
 30
0.0
 11
31.62666666666667
 21
37.00710678118656
 31
0.0
  0
ARC
  5
100001A9
  8
MODELSKETCH_VISIBLE
 10
31.2731132760734
 20
36.65355339059328
 30
0.0
 40
0.5000000000000019
 50
225.0
 51
45.00000000000031
  0
LINE
  5
100001AC
  8
MODELSKETCH_VISIBLE
 10
30.91955988548012
 20
36.3
 30
0.0
 11
23.64044011451989
 21
36.3
 31
0.0
  0
ARC
  5
100001AF
  8
MODELSKETCH_VISIBLE
 10
23.28688672392661
 20
36.65355339059328
 30
0.0
 40
0.5000000000000007
 50
134.9999999999997
 51
315.0
  0
LINE
  5
100001B2
  8
MODELSKETCH_VISIBLE
 10
22.93333333333334
 20
37.00710678118656
 30
0.0
 11
22.93333333333334
 21
40.40000000000001
 31
0.0
  0
LINE
  5
100001B5
  8
MODELSKETCH_VISIBLE
 10
22.93333333333334
 20
40.40000000000001
 30
0.0
 11
13.44000000000001
 21
40.40000000000001
 31
0.0
  0
LINE
  5
100001B8
  8
MODELSKETCH_VISIBLE
 10
13.44000000000001
 20
40.40000000000001
 30
0.0
 11
13.44000000000001
 21
37.00710678118655
 31
0.0
  0
ARC
  5
100001BB
  8
MODELSKETCH_VISIBLE
 10
13.08644660940673
 20
36.65355339059328
 30
0.0
 40
0.5000000000000007
 50
225.0
 51
44.99999999999944
  0
LINE
  5
100001BE
  8
MODELSKETCH_VISIBLE
 10
12.73289321881346
 20
36.3
 30
0.0
 11
5.453773447853217
 21
36.3
 31
0.0
  0
ARC
  5
100001C1
  8
MODELSKETCH_VISIBLE
 10
5.100220057259948
 20
36.65355339059329
 30
0.0
 40
0.5
 50
134.9999999999993
 51
314.9999999999987
  0
LINE
  5
100001C4
  8
MODELSKETCH_VISIBLE
 10
4.746666666666678
 20
37.00710678118656
 30
0.0
 11
4.746666666666678
 21
40.40000000000001
 31
0.0
  0
ENDSEC
  0
EOF
